<svg width="422" height="422" viewBox="0 0 422 422" fill="none" xmlns="http://www.w3.org/2000/svg">
<path d="M193.417 343.754L105.5 293.202C99.9319 289.979 95.6123 285.659 92.5411 280.243C89.4581 274.816 87.9166 268.879 87.9166 262.431V161.767C87.9166 155.32 89.4581 149.382 92.5411 143.955C95.6123 138.539 99.9319 134.22 105.5 130.996L193.417 80.4439C198.985 77.2203 204.846 75.6085 211 75.6085C217.154 75.6085 223.015 77.2203 228.583 80.4439L316.5 130.996C322.068 134.22 326.394 138.539 329.477 143.955C332.548 149.382 334.083 155.32 334.083 161.767V262.431C334.083 268.879 332.548 274.816 329.477 280.243C326.394 285.659 322.068 289.979 316.5 293.202L228.583 343.754C223.015 346.978 217.154 348.59 211 348.59C204.846 348.59 198.985 346.978 193.417 343.754V343.754ZM193.417 303.313V222.429L123.083 181.988V262.871L193.417 303.313ZM228.583 303.313L298.917 262.871V181.988L228.583 222.429V303.313ZM17.5833 105.5V70.3335C17.5833 55.6807 22.7118 43.2259 32.9687 32.9689C43.2257 22.712 55.6805 17.5835 70.3333 17.5835H105.5V52.7502H70.3333C65.3514 52.7502 61.1783 54.4323 57.814 57.7966C54.438 61.1726 52.75 65.3516 52.75 70.3335V105.5H17.5833ZM70.3333 404.417C55.6805 404.417 43.2257 399.288 32.9687 389.031C22.7118 378.774 17.5833 366.32 17.5833 351.667V316.5H52.75V351.667C52.75 356.649 54.438 360.822 57.814 364.186C61.1783 367.562 65.3514 369.25 70.3333 369.25H105.5V404.417H70.3333ZM316.5 404.417V369.25H351.667C356.649 369.25 360.822 367.562 364.186 364.186C367.562 360.822 369.25 356.649 369.25 351.667V316.5H404.417V351.667C404.417 366.32 399.288 378.774 389.031 389.031C378.774 399.288 366.319 404.417 351.667 404.417H316.5ZM369.25 105.5V70.3335C369.25 65.3516 367.562 61.1726 364.186 57.7966C360.822 54.4323 356.649 52.7502 351.667 52.7502H316.5V17.5835H351.667C366.319 17.5835 378.774 22.712 389.031 32.9689C399.288 43.2259 404.417 55.6807 404.417 70.3335V105.5H369.25ZM211 191.658L281.333 151.217L211 110.775L140.667 151.217L211 191.658Z" fill="#EBB017"/>
</svg>
